HIERARCHY
ROOT Hip
{
	OFFSET 0 1.131 0.0052
	CHANNELS 6 Xposition Yposition Zposition Xrotation Yrotation Zrotation
	JOINT Abdomen
	{
		OFFSET 0 -0.047353 -0.05
		CHANNELS 3 Xrotation Zrotation Yrotation
		JOINT Chest
		{
			OFFSET 0 0.132153 0.007439
			CHANNELS 3 Xrotation Zrotation Yrotation
			JOINT Neck
			{
				OFFSET 0 0.3078 0.006161
				CHANNELS 3 Xrotation Zrotation Yrotation
				JOINT Head_comp
				{
					OFFSET 0 0.0884 0.013
					CHANNELS 3 Xrotation Yrotation Zrotation
					End Site
					{
						OFFSET -0 0.156 0.0624
					}
				}
			}
			JOINT Left_Collar
			{
				OFFSET 0.02282 0.250342 0.017193
				CHANNELS 2 Yrotation Zrotation
				JOINT Left_Shoulder
				{
					OFFSET 0.15421 0 0
					CHANNELS 3 Xrotation Yrotation Zrotation
					JOINT Left_Forearm
					{
						OFFSET 0.265212 0 0
						CHANNELS 2 Yrotation Xrotation
						JOINT Left_Hand
						{
							OFFSET 0.27571 0 0
							CHANNELS 2 Zrotation Yrotation
							JOINT L1ProxPhalanx
							{
								OFFSET 0.014142 0.001733 0.014142
								CHANNELS 3 Yrotation Zrotation Xrotation
								JOINT L1MidPhalanx
								{
									OFFSET 0.04 0 0
									CHANNELS 1 Zrotation
									JOINT L1DistPhalanx
									{
										OFFSET 0.035 0 0
										CHANNELS 1 Zrotation
										End Site
										{
											OFFSET 0.029 -0 -0
										}
									}
								}
							}
							JOINT L2ProxPhalanx
							{
								OFFSET 0.0821037 0.001578 0.0219996
								CHANNELS 2 Yrotation Zrotation
								JOINT L2MidPhalanx
								{
									OFFSET 0.04 0 0
									CHANNELS 1 Zrotation
									JOINT L2DistPhalanx
									{
										OFFSET 0.028 0 0
										CHANNELS 1 Zrotation
										End Site
										{
											OFFSET 0.02 -0 -0
										}
									}
								}
							}
							JOINT L3ProxPhalanx
							{
								OFFSET 0.083 0 0
								CHANNELS 2 Yrotation Zrotation
								JOINT L3MidPhalanx
								{
									OFFSET 0.053 0 0
									CHANNELS 1 Zrotation
									JOINT L3DistPhalanx
									{
										OFFSET 0.03 0 0
										CHANNELS 1 Zrotation
										End Site
										{
											OFFSET 0.023 -0 -0
										}
									}
								}
							}
							JOINT L4ProxPhalanx
							{
								OFFSET 0.077274 -0.000761 -0.0207055
								CHANNELS 2 Yrotation Zrotation
								JOINT L4MidPhalanx
								{
									OFFSET 0.05 0 0
									CHANNELS 1 Zrotation
									JOINT L4DistPhalanx
									{
										OFFSET 0.03 0 0
										CHANNELS 1 Zrotation
										End Site
										{
											OFFSET 0.023 -0 -0
										}
									}
								}
							}
							JOINT L5ProxPhalanx
							{
								OFFSET 0.0675499 -0.001644 -0.039
								CHANNELS 2 Yrotation Zrotation
								JOINT L5MidPhalanx
								{
									OFFSET 0.04 0 0
									CHANNELS 1 Zrotation
									JOINT L5DistPhalanx
									{
										OFFSET 0.021 0 0
										CHANNELS 1 Zrotation
										End Site
										{
											OFFSET 0.022 -0 -0
										}
									}
								}
							}
						}
					}
				}
			}
			JOINT Right_Collar
			{
				OFFSET -0.02282 0.250342 0.017193
				CHANNELS 2 Yrotation Zrotation
				JOINT Right_Shoulder
				{
					OFFSET -0.15421 0 0
					CHANNELS 3 Xrotation Yrotation Zrotation
					JOINT Right_Forearm
					{
						OFFSET -0.265212 0 0
						CHANNELS 2 Yrotation Xrotation
						JOINT Right_Hand
						{
							OFFSET -0.27571 3e-006 0
							CHANNELS 2 Zrotation Yrotation
							JOINT R1ProxPhalanx
							{
								OFFSET -0.014142 0.001733 0.014142
								CHANNELS 3 Yrotation Zrotation Xrotation
								JOINT R1MidPhalanx
								{
									OFFSET -0.04 0 0
									CHANNELS 1 Zrotation
									JOINT R1DistPhalanx
									{
										OFFSET -0.035 0 0
										CHANNELS 1 Zrotation
										End Site
										{
											OFFSET -0.029 -0 -0
										}
									}
								}
							}
							JOINT R2ProxPhalanx
							{
								OFFSET -0.0821037 0.001578 0.0219996
								CHANNELS 2 Yrotation Zrotation
								JOINT R2MidPhalanx
								{
									OFFSET -0.04 0 0
									CHANNELS 1 Zrotation
									JOINT R2DistPhalanx
									{
										OFFSET -0.028 0 0
										CHANNELS 1 Zrotation
										End Site
										{
											OFFSET -0.02 -0 -0
										}
									}
								}
							}
							JOINT R3ProxPhalanx
							{
								OFFSET -0.083 0 0
								CHANNELS 2 Yrotation Zrotation
								JOINT R3MidPhalanx
								{
									OFFSET -0.053 0 0
									CHANNELS 1 Zrotation
									JOINT R3DistPhalanx
									{
										OFFSET -0.03 0 0
										CHANNELS 1 Zrotation
										End Site
										{
											OFFSET -0.023 -0 -0
										}
									}
								}
							}
							JOINT R4ProxPhalanx
							{
								OFFSET -0.077274 -0.000761 -0.0207055
								CHANNELS 2 Yrotation Zrotation
								JOINT R4MidPhalanx
								{
									OFFSET -0.05 0 0
									CHANNELS 1 Zrotation
									JOINT R4DistPhalanx
									{
										OFFSET -0.03 0 0
										CHANNELS 1 Zrotation
										End Site
										{
											OFFSET -0.023 -0 -0
										}
									}
								}
							}
							JOINT R5ProxPhalanx
							{
								OFFSET -0.0675499 -0.001644 -0.039
								CHANNELS 2 Yrotation Zrotation
								JOINT R5MidPhalanx
								{
									OFFSET -0.04 0 0
									CHANNELS 1 Zrotation
									JOINT R5DistPhalanx
									{
										OFFSET -0.021 0 0
										CHANNELS 1 Zrotation
										End Site
										{
											OFFSET -0.022 -0 -0
										}
									}
								}
							}
						}
					}
				}
			}
		}
	}
	JOINT Left_Thigh
	{
		OFFSET 0.1118 -0.1612 -0.0442
		CHANNELS 3 Xrotation Zrotation Yrotation
		JOINT Left_Shin
		{
			OFFSET 0 -0.477856 0
			CHANNELS 1 Xrotation
			JOINT Left_Foot
			{
				OFFSET 0 -0.431952 0
				CHANNELS 2 Xrotation Zrotation
				JOINT Left_Toe
				{
					OFFSET 0 -0.0442 0.119
					CHANNELS 1 Xrotation
					End Site
					{
						OFFSET -0 -0 0.07
					}
				}
			}
		}
	}
	JOINT Right_Thigh
	{
		OFFSET -0.1118 -0.1612 -0.0442
		CHANNELS 3 Xrotation Zrotation Yrotation
		JOINT Right_Shin
		{
			OFFSET 0 -0.477856 0
			CHANNELS 1 Xrotation
			JOINT Right_Foot
			{
				OFFSET 0 -0.431952 0
				CHANNELS 2 Xrotation Zrotation
				JOINT Right_Toe
				{
					OFFSET 0 -0.0442 0.119
					CHANNELS 1 Xrotation
					End Site
					{
						OFFSET -0 -0 0.07
					}
				}
			}
		}
	}
}
MOTION
Frames: 6
Frame Time: 0.009975
-0.100724 -0.0601615 0.052628 6.31052e-013 7.6544e-008 -5.10913e-006 0 -0 0 0 -0 0 0 -0 0 -0.71324 0.289532 -4.62364e-012 8.30674 -25.6205 14.7998 -13.1404 -27.4132 -102.767 -2.30512 -4.46941 -7.26596 -27.5605 -21.5864 106.421 -7.48048 -7.22872 0.359187 -7.00922 -0.766388 -1.05378 4.72541 -4.46271 -1.39298 -3.41729 8.71841 0.0688695 -13.7112 -8.22532 12.9011 1.57409 -20.5968 -30.2417 -7.11652 26.2728 12.1821 15.3052 26.2918 86.7027 1.04338 -3.60159 -1.71788 19.6807 49.8285 120.575 17.3583 14.502 -11.2021 25.5022 5.14341 7.22573 -13.9659 19.394 13.1674 12.6371 -19.8133 9.18441 40.4772 -1.8846 -33.0247 -1.61887 101.891 -53.3008 0.846925 -0.697557 -0.0103115 0.0240216 -0.870884 0.697639 0 0.858331 -0.697555 -0.0104504 8.58043e-007 -0.858268 0.697639 0 
-0.100673 -0.0601604 0.0525123 8.34262e-014 7.58939e-008 -5.10914e-006 0 -0 0 0 -0 0 0 -0 0 -0.71323 0.289365 -2.95631e-012 8.30674 -25.6205 14.7998 -13.1404 -27.4132 -102.767 -2.30512 -4.46941 -7.26596 -27.5605 -21.5864 106.421 -7.48048 -7.22872 0.359187 -7.00922 -0.766388 -1.05378 4.72541 -4.46271 -1.39298 -3.41729 8.71841 0.0688695 -13.7112 -8.22532 12.9011 1.57409 -20.5968 -30.2417 -7.0269 26.2202 11.8793 15.6786 26.2646 85.454 1.34799 -3.94228 -1.86424 16.2257 57.2721 124.283 18.1925 14.4778 -13.963 40.8768 10.1008 12.6143 -19.2308 37.308 23.4521 19.8801 -28.4804 18.5468 65.6383 -0.143032 -49.6125 -0.836938 113.909 -39.4533 0.839634 -0.700752 -0.0102696 0.0240216 -0.863592 0.700832 0 0.851039 -0.70075 -0.0104091 1.19534e-006 -0.850977 0.700832 0 
-0.100636 -0.0601589 0.0523794 -7.80586e-013 7.5597e-008 -5.10915e-006 0 -0 0 0 -0 0 0 -0 0 -0.713216 0.289258 -2.91056e-012 8.30674 -25.6205 14.7998 -13.1404 -27.4132 -102.767 -2.30512 -4.46941 -7.26596 -27.5605 -21.5864 106.421 -7.48048 -7.22872 0.359187 -7.00922 -0.766388 -1.05378 4.72541 -4.46271 -1.39298 -3.41729 8.71841 0.0688695 -13.7112 -8.22532 12.9011 1.57409 -20.5968 -30.2417 -6.84914 26.1862 11.517 16.0233 26.2488 84.1976 1.65932 -4.25121 -2.0403 34.3414 45.1218 100.923 17.9737 17.4616 -7.31891 20.9544 8.58018 8.78347 -10.9287 19.7045 15.1744 13.5585 -14.4441 18.4583 35.7841 -1.50603 -25.9425 25.1969 28.0113 4.35958 0.831264 -0.70305 -0.0102005 0.0240216 -0.855223 0.703129 0 0.842669 -0.703048 -0.0103405 2.41484e-006 -0.842608 0.703129 0 
-0.100593 -0.0601569 0.0522027 5.86663e-013 7.46844e-008 -5.10916e-006 0 -0 0 0 -0 0 0 -0 0 -0.713198 0.289151 -5.72354e-012 8.30674 -25.6205 14.7998 -13.1404 -27.4132 -102.767 -2.30512 -4.46941 -7.26596 -27.5605 -21.5864 106.421 -7.48048 -7.22872 0.359187 -7.00922 -0.766388 -1.05378 4.72541 -4.46271 -1.39298 -3.41729 8.71841 0.0688695 -13.7112 -8.22532 12.9011 1.57409 -20.5968 -30.2417 -6.61081 26.1751 11.0997 16.322 26.2232 82.9641 1.97283 -4.5448 -2.27251 47.6182 38.8725 88.8006 17.6048 18.4182 -1.48359 20.5649 18.5543 14.6243 -3.32877 23.0817 21.6272 16.3095 -2.73282 28.8866 31.7788 2.23636 -9.91477 35.5653 20.5056 18.1809 0.820134 -0.705795 -0.0101032 0.0240216 -0.844093 0.705873 0 0.83154 -0.705793 -0.0102437 2.41484e-006 -0.831479 0.705873 0 
-0.100555 -0.0601549 0.0520319 -4.43735e-013 7.36044e-008 -5.10918e-006 0 -0 0 0 -0 0 0 -0 0 -0.713182 0.289024 -3.55939e-012 8.30674 -25.6205 14.7998 -13.1404 -27.4132 -102.767 -2.30512 -4.46941 -7.26596 -27.5605 -21.5864 106.421 -7.48048 -7.22872 0.359187 -7.00922 -0.766388 -1.05378 4.72541 -4.46271 -1.39298 -3.41729 8.71841 0.0688695 -13.7112 -8.22532 12.9011 1.57409 -20.5968 -30.2417 -6.38877 26.1302 10.7158 16.7494 26.1462 81.7197 2.28302 -4.83726 -2.51797 42.1378 53.0209 98.9074 16.7779 16.9345 -6.23647 43.0979 25.4378 23.9063 -9.10443 44.5401 35.4183 25.695 -13.2057 34.7419 65.0911 5.77965 -33.0303 10.1351 109.848 -16.1794 0.809379 -0.708161 -0.0100042 0.0240216 -0.833339 0.708237 0 0.820784 -0.708159 -0.0101451 2.25555e-006 -0.820723 0.708237 0 
-0.100513 -0.0601528 0.0518491 7.65335e-013 7.27671e-008 -5.1092e-006 0 -0 0 0 -0 0 0 -0 0 -0.713163 0.288924 -4.39812e-012 8.30674 -25.6205 14.7998 -13.1404 -27.4132 -102.767 -2.30512 -4.46941 -7.26596 -27.5605 -21.5864 106.421 -7.48048 -7.22872 0.359187 -7.00922 -0.766388 -1.05378 4.72541 -4.46271 -1.39298 -3.41729 8.71841 0.0688695 -13.7112 -8.22532 12.9011 1.57409 -20.5968 -30.2417 -6.11497 26.0898 10.2316 17.1533 26.053 80.4766 2.61017 -5.14652 -2.77506 37.5522 49.243 101.092 17.4769 19.4485 -7.29838 25.5259 12.8912 13.3178 -10.5299 24.3943 20.3121 16.5397 -13.5455 19.7598 42.638 -3.27971 -28.9664 -0.124006 98.9902 -49.2573 0.797864 -0.7108 -0.00989849 0.0240216 -0.821824 0.710874 0 0.809269 -0.710798 -0.01004 1.4583e-006 -0.809208 0.710874 0 
